<svg xmlns="http://www.w3.org/2000/svg" viewBox="0 0 24 24" fill="white" stroke="none">
  <path d="M12 21.35l-1.45-1.32C5.4 15.36 2 12.28 2 8.5 2 5.42 4.42 3 7.5 3c1.74 0 3.41.81 4.5 2.09C13.09 3.81 14.76 3 16.5 3 19.58 3 22 5.42 22 8.5c0 3.78-3.4 6.86-8.55 11.54L12 21.35zM12 18.27l-.6-.55c-3.15-2.88-5.4-5.07-5.4-7.22 0-1.87 1.25-3.12 3-3.12.87 0 1.76.38 2.3.93l.7.7.7-.7c.54-.55 1.43-.93 2.3-.93 1.75 0 3 1.25 3 3.12 0 2.15-2.25 4.34-5.4 7.22l-.6.55zM12 9.5l-3-3H6v2h2.5l1.5 1.5-1.5 1.5H6v2h4.5l3-3-3-3H18V9.5h-6z" />
</svg>
